<?xml version="1.0" encoding="UTF-8" standalone="no"?><svg xmlns="http://www.w3.org/2000/svg" xmlns:xlink="http://www.w3.org/1999/xlink" contentScriptType="application/ecmascript" contentStyleType="text/css" height="554px" preserveAspectRatio="none" style="width:895px;height:554px;" version="1.1" viewBox="0 0 895 554"
    width="895px" zoomAndPan="magnify"><defs><filter height="300%" id="f1buiyr7ktqhsl" width="300%" x="-1" y="-1"><feGaussianBlur result="blurOut" stdDeviation="2.0"/><feColorMatrix in="blurOut" result="blurOut2" type="matrix" values="0 0 0 0 0 0 0 0 0 0 0 0 0 0 0 0 0 0 .4 0"/><feOffset dx="4.0" dy="4.0" in="blurOut2" result="blurOut3"/><feBlend in="SourceGraphic" in2="blurOut3" mode="normal"/></filter></defs><g><!--class Ticket--><rect fill="#F8F8F8" filter="url(#f1buiyr7ktqhsl)" height="144" id="Ticket" style="stroke: #383838; stroke-width: 1.5;" width="300" x="202" y="380"/><ellipse cx="324" cy="395" fill="#B1B1B1" rx="10" ry="10" style="stroke: #383838; stroke-width: 1.0;"/><path d="M321.1758,391.5713 L321.1758,389.7939 L327.2529,389.7939 L327.2529,391.5713 L325.2227,391.5713 L325.2227,398.2227 L327.2529,398.2227 L327.2529,400 L321.1758,400 L321.1758,398.2227 L323.2061,398.2227 L323.2061,391.5713 Z "/><text fill="#000000" font-family="Courier" font-size="14" font-style="italic" lengthAdjust="spacingAndGlyphs" textLength="48" x="343" y="398.5547">Ticket</text><line style="stroke: #383838; stroke-width: 1.5;" x1="203" x2="501" y1="410" y2="410"/><line style="stroke: #383838; stroke-width: 1.5;" x1="203" x2="501" y1="418" y2="418"/><text fill="#000000" font-family="Courier" font-size="14" lengthAdjust="spacingAndGlyphs" textLength="192" x="208" y="432.5547">Long            getId();</text><text fill="#000000" font-family="Courier" font-size="14" lengthAdjust="spacingAndGlyphs" textLength="232" x="208" y="446.5547">String          getSubject();</text><text fill="#000000" font-family="Courier" font-size="14" lengthAdjust="spacingAndGlyphs" textLength="224" x="208" y="460.5547">TicketStatus    getStatus();</text><text fill="#000000" font-family="Courier" font-size="14" lengthAdjust="spacingAndGlyphs" textLength="256" x="208" y="474.5547">Resolution      getResolution();</text><text fill="#000000" font-family="Courier" font-size="14" lengthAdjust="spacingAndGlyphs" textLength="288" x="208" y="488.5547">String          getResolutionInfo();</text><text fill="#000000" font-family="Courier" font-size="14" lengthAdjust="spacingAndGlyphs" textLength="272" x="208" y="502.5547">LocalDateTime   getCreationDate();</text><text fill="#000000" font-family="Courier" font-size="14" lengthAdjust="spacingAndGlyphs" textLength="264" x="208" y="516.5547">LocalDateTime   getClosingDate();</text><!--class TicketStatus--><rect fill="#F8F8F8" filter="url(#f1buiyr7ktqhsl)" height="74" id="TicketStatus" style="stroke: #383838; stroke-width: 1.5;" width="126" x="758" y="360"/><ellipse cx="772" cy="375" fill="#ABABAB" rx="10" ry="10" style="stroke: #383838; stroke-width: 1.0;"/><path d="M775.0059,380 L768.6484,380 L768.6484,369.7939 L775.0059,369.7939 L775.0059,371.5713 L770.665,371.5713 L770.665,373.7725 L774.5957,373.7725 L774.5957,375.5498 L770.665,375.5498 L770.665,378.2227 L775.0059,378.2227 Z "/><text fill="#000000" font-family="Courier" font-size="14" lengthAdjust="spacingAndGlyphs" textLength="96" x="785" y="378.5547">TicketStatus</text><line style="stroke: #383838; stroke-width: 1.5;" x1="759" x2="883" y1="390" y2="390"/><text fill="#000000" font-family="Courier" font-size="14" lengthAdjust="spacingAndGlyphs" textLength="40" x="764" y="404.5547">OPEN,</text><text fill="#000000" font-family="Courier" font-size="14" lengthAdjust="spacingAndGlyphs" textLength="48" x="764" y="418.5547">CLOSED</text><line style="stroke: #383838; stroke-width: 1.5;" x1="759" x2="883" y1="426" y2="426"/><!--class Resolution--><rect fill="#F8F8F8" filter="url(#f1buiyr7ktqhsl)" height="74" id="Resolution" style="stroke: #383838; stroke-width: 1.5;" width="110" x="766" y="469"/><ellipse cx="780" cy="484" fill="#ABABAB" rx="10" ry="10" style="stroke: #383838; stroke-width: 1.0;"/><path d="M783.0059,489 L776.6484,489 L776.6484,478.7939 L783.0059,478.7939 L783.0059,480.5713 L778.665,480.5713 L778.665,482.7725 L782.5957,482.7725 L782.5957,484.5498 L778.665,484.5498 L778.665,487.2227 L783.0059,487.2227 Z "/><text fill="#000000" font-family="Courier" font-size="14" lengthAdjust="spacingAndGlyphs" textLength="80" x="793" y="487.5547">Resolution</text><line style="stroke: #383838; stroke-width: 1.5;" x1="767" x2="875" y1="499" y2="499"/><text fill="#000000" font-family="Courier" font-size="14" lengthAdjust="spacingAndGlyphs" textLength="56" x="772" y="513.5547">SOLVED,</text><text fill="#000000" font-family="Courier" font-size="14" lengthAdjust="spacingAndGlyphs" textLength="80" x="772" y="527.5547">NOT_SOLVED</text><line style="stroke: #383838; stroke-width: 1.5;" x1="767" x2="875" y1="535" y2="535"/><!--class TicketDao--><rect fill="#F8F8F8" filter="url(#f1buiyr7ktqhsl)" height="144" id="TicketDao" style="stroke: #383838; stroke-width: 1.5;" width="428" x="138" y="201"/><ellipse cx="312" cy="216" fill="#B1B1B1" rx="10" ry="10" style="stroke: #383838; stroke-width: 1.0;"/><path d="M309.1758,212.5713 L309.1758,210.7939 L315.2529,210.7939 L315.2529,212.5713 L313.2227,212.5713 L313.2227,219.2227 L315.2529,219.2227 L315.2529,221 L309.1758,221 L309.1758,219.2227 L311.2061,219.2227 L311.2061,212.5713 Z "/><text fill="#000000" font-family="Courier" font-size="14" font-style="italic" lengthAdjust="spacingAndGlyphs" textLength="72" x="331" y="219.5547">TicketDao</text><line style="stroke: #383838; stroke-width: 1.5;" x1="139" x2="565" y1="231" y2="231"/><line style="stroke: #383838; stroke-width: 1.5;" x1="139" x2="565" y1="239" y2="239"/><text fill="#000000" font-family="Courier" font-size="14" lengthAdjust="spacingAndGlyphs" textLength="320" x="144" y="253.5547">Ticket            create(Ticket ticket);</text><text fill="#000000" font-family="Courier" font-size="14" lengthAdjust="spacingAndGlyphs" textLength="272" x="144" y="267.5547">Ticket            getOne(long id);</text><text fill="#000000" font-family="Courier" font-size="14" lengthAdjust="spacingAndGlyphs" textLength="280" x="144" y="281.5547">Optional&lt;Ticket&gt;  findOne(long id);</text><text fill="#000000" font-family="Courier" font-size="14" lengthAdjust="spacingAndGlyphs" textLength="416" x="144" y="295.5547">List&lt;Ticket&gt;      find(Predicate&lt;Ticket&gt; predicate);</text><text fill="#000000" font-family="Courier" font-size="14" lengthAdjust="spacingAndGlyphs" textLength="200" x="144" y="309.5547">List&lt;Ticket&gt;      find();</text><text fill="#000000" font-family="Courier" font-size="14" lengthAdjust="spacingAndGlyphs" textLength="320" x="144" y="323.5547">Ticket            update(Ticket ticket);</text><text fill="#000000" font-family="Courier" font-size="14" lengthAdjust="spacingAndGlyphs" textLength="272" x="144" y="337.5547">Ticket            delete(long id);</text><!--class TicketsService--><rect fill="#F8F8F8" filter="url(#f1buiyr7ktqhsl)" height="158" id="TicketsService" style="stroke: #383838; stroke-width: 1.5;" width="692" x="6" y="8"/><ellipse cx="292" cy="23" fill="#B1B1B1" rx="10" ry="10" style="stroke: #383838; stroke-width: 1.0;"/><path d="M289.1758,19.5713 L289.1758,17.7939 L295.2529,17.7939 L295.2529,19.5713 L293.2227,19.5713 L293.2227,26.2227 L295.2529,26.2227 L295.2529,28 L289.1758,28 L289.1758,26.2227 L291.2061,26.2227 L291.2061,19.5713 Z "/><text fill="#000000" font-family="Courier" font-size="14" font-style="italic" lengthAdjust="spacingAndGlyphs" textLength="112" x="311" y="26.5547">TicketsService</text><line style="stroke: #383838; stroke-width: 1.5;" x1="7" x2="697" y1="38" y2="38"/><line style="stroke: #383838; stroke-width: 1.5;" x1="7" x2="697" y1="46" y2="46"/><text fill="#000000" font-family="Courier" font-size="14" lengthAdjust="spacingAndGlyphs" textLength="320" x="12" y="60.5547">Ticket            report(Ticket ticket);</text><text fill="#000000" font-family="Courier" font-size="14" lengthAdjust="spacingAndGlyphs" textLength="296" x="12" y="74.5547">Ticket            get(long ticketId);</text><text fill="#000000" font-family="Courier" font-size="14" lengthAdjust="spacingAndGlyphs" textLength="328" x="12" y="88.5547">Optional&lt;Ticket&gt;  findOne(long ticketId);</text><text fill="#000000" font-family="Courier" font-size="14" lengthAdjust="spacingAndGlyphs" textLength="192" x="12" y="102.5547">List&lt;Ticket&gt;      all();</text><text fill="#000000" font-family="Courier" font-size="14" lengthAdjust="spacingAndGlyphs" textLength="320" x="12" y="116.5547">Ticket            modify(Ticket ticket);</text><text fill="#000000" font-family="Courier" font-size="14" lengthAdjust="spacingAndGlyphs" textLength="496" x="12" y="130.5547">Ticket            close(long ticketId, Resolution resolution);</text><text fill="#000000" font-family="Courier" font-size="14" lengthAdjust="spacingAndGlyphs" textLength="680" x="12" y="144.5547">Ticket            close(long ticketId, Resolution resolution, String resolutionInfo);</text><text fill="#000000" font-family="Courier" font-size="14" lengthAdjust="spacingAndGlyphs" textLength="416" x="12" y="158.5547">List&lt;Ticket&gt;      find(Predicate&lt;Ticket&gt; predicate);</text><!--link Ticket to TicketStatus--><path d="M515.0455,432.8795 C598.7122,423.0679 695.7963,411.6827 757.7731,404.4147 " fill="none" id="Ticket-TicketStatus" style="stroke: #383838; stroke-width: 1.0;"/><polygon fill="#FFFFFF" points="502.0068,434.4086,508.4319,437.6825,513.9251,433.0108,507.5,429.7369,502.0068,434.4086" style="stroke: #383838; stroke-width: 1.0;"/><!--link Ticket to Resolution--><path d="M515.0587,470.7743 C602.4084,480.8317 704.3794,492.5725 765.7556,499.6392 " fill="none" id="Ticket-Resolution" style="stroke: #383838; stroke-width: 1.0;"/><polygon fill="#FFFFFF" points="502.0068,469.2716,507.5099,473.9317,513.928,470.6442,508.425,465.9842,502.0068,469.2716" style="stroke: #383838; stroke-width: 1.0;"/><!--
@startuml
left to right direction
skinparam monochrome true
skinparam defaultFontName "Courier"
skinparam defaultFontSize 14

interface Ticket {
  Long            getId();
  String          getSubject();
  TicketStatus    getStatus();
  Resolution      getResolution();
  String          getResolutionInfo();
  LocalDateTime   getCreationDate();
  LocalDateTime   getClosingDate();
}

enum TicketStatus {
  OPEN,
  CLOSED
}

enum Resolution {
  SOLVED,
  NOT_SOLVED
}

interface TicketDao {
  Ticket            create(Ticket ticket);
  Ticket            getOne(long id);
  Optional<Ticket>  findOne(long id);
  List<Ticket>      find(Predicate<Ticket> predicate);
  List<Ticket>      find();
  Ticket            update(Ticket ticket);
  Ticket            delete(long id);
}

interface TicketsService {
  Ticket            report(Ticket ticket);
  Ticket            get(long ticketId);
  Optional<Ticket>  findOne(long ticketId);
  List<Ticket>      all();
  Ticket            modify(Ticket ticket);
  Ticket            close(long ticketId, Resolution resolution);
  Ticket            close(long ticketId, Resolution resolution, String resolutionInfo);
  List<Ticket>      find(Predicate<Ticket> predicate);
}

Ticket o- - TicketStatus
Ticket o- - Resolution

@enduml

PlantUML version 1.2018.05(Sat May 05 15:00:17 COT 2018)
(GPL source distribution)
Java Runtime: Java(TM) SE Runtime Environment
JVM: Java HotSpot(TM) 64-Bit Server VM
Java Version: 10.0.1+10
Operating System: Mac OS X
OS Version: 10.13.5
Default Encoding: UTF-8
Language: en
Country: CO
--></g></svg>